<?xml version="1.0" encoding="UTF-8"?>
<svg width="34px" height="34px" viewBox="0 0 34 34" version="1.1" xmlns="http://www.w3.org/2000/svg" xmlns:xlink="http://www.w3.org/1999/xlink">
    <!-- Generator: Sketch 62 (91390) - https://sketch.com -->
    <title>icon/message</title>
    <desc>Created with Sketch.</desc>
    <g id="Symbols" stroke="none" stroke-width="1" fill="none" fill-rule="evenodd">
        <g id="icon/number" transform="translate(-1.000000, 0.000000)" fill="#FF4242">
            <g id="icon/message" transform="translate(1.000000, 0.000000)">
                <g id="icon-copy" transform="translate(17.000000, 17.013889) scale(-1, 1) translate(-17.000000, -17.013889) translate(0.000000, 0.972222)">
                    <path d="M19.1540453,1.42108547e-14 C27.3532397,1.80337577e-14 34,6.64676033 34,14.8459547 C34,23.0451491 27.3532397,29.6919094 19.1540453,29.6919094 L14.8459547,29.6919094 C13.7834119,29.6919094 12.7469404,29.5802847 11.7476272,29.3681221 C11.3062408,29.5663871 10.8264116,29.7863844 10.3059465,30.0303656 C6.73294253,31.7053018 2.91453995,32.4627771 2.05563234,31.8985441 C1.1487554,31.302799 2.97918728,29.1876723 4.35932611,27.4135186 C4.66789388,27.0168581 4.99363078,26.6259917 5.33607943,26.2474828 C2.07535003,23.5243185 5.61077306e-16,19.4274986 0,14.8459547 C-1.00411172e-15,6.64676033 6.64676033,1.57170223e-14 14.8459547,1.42108547e-14 L19.1540453,1.42108547e-14 Z" id="Combined-Shape"></path>
                </g>
            </g>
        </g>
    </g>
</svg>